<svg width="24" height="24" viewBox="0 0 24 24" fill="none" xmlns="http://www.w3.org/2000/svg">
<mask id="mask0_686_347" style="mask-type:alpha" maskUnits="userSpaceOnUse" x="0" y="0" width="24" height="24">
<rect width="24" height="24" fill="#D9D9D9"/>
</mask>
<g mask="url(#mask0_686_347)">
<path d="M1 18L1.5 16H7L6.5 18H1ZM3 14L3.5 12H10L9.5 14H3ZM18.575 20L19.075 16L19.8 10L20.05 8.025L18.575 20ZM6 22C5.45 22 4.97917 21.8042 4.5875 21.4125C4.19583 21.0208 4 20.55 4 20H18.575L20.05 8.025H17.3L17.025 10.15C16.9917 10.4333 16.8667 10.6542 16.65 10.8125C16.4333 10.9708 16.1833 11.0333 15.9 11C15.6167 10.9667 15.3958 10.8458 15.2375 10.6375C15.0792 10.4292 15.0167 10.1833 15.05 9.9L15.275 8.025H11.3L11.025 10.125C10.9917 10.4083 10.8667 10.6333 10.65 10.8C10.4333 10.9667 10.1833 11.0333 9.9 11C9.61667 10.9667 9.39167 10.8417 9.225 10.625C9.05833 10.4083 8.99167 10.1583 9.025 9.875L9.25 8.025H5.5C5.56667 7.45833 5.78333 6.97917 6.15 6.5875C6.51667 6.19583 6.96667 6 7.5 6H9.5C9.63333 4.75 10.0625 3.77083 10.7875 3.0625C11.5125 2.35417 12.5 2 13.75 2C14.8167 2 15.7042 2.39583 16.4125 3.1875C17.1208 3.97917 17.4667 4.91667 17.45 6H20C20.6 6.01667 21.1 6.25 21.5 6.7C21.9 7.15 22.0583 7.675 21.975 8.275L20.475 20.275C20.4083 20.775 20.1875 21.1875 19.8125 21.5125C19.4375 21.8375 19 22 18.5 22H6ZM11.5 6H15.475C15.4917 5.45 15.3042 4.97917 14.9125 4.5875C14.5208 4.19583 14.05 4 13.5 4C12.9167 4 12.4542 4.17917 12.1125 4.5375C11.7708 4.89583 11.5667 5.38333 11.5 6Z" fill="white"/>
</g>
</svg>
