<svg width="21" height="21" viewBox="0 0 21 21" fill="none" xmlns="http://www.w3.org/2000/svg">
<mask id="mask0_916_587" style="mask-type:alpha" maskUnits="userSpaceOnUse" x="0" y="0" width="21" height="21">
<rect width="20.2282" height="20.2282" fill="#D9D9D9"/>
</mask>
<g mask="url(#mask0_916_587)">
<path d="M9.27064 14.3272H10.9563V9.27015H9.27064V14.3272ZM10.1135 7.58447C10.3523 7.58447 10.5525 7.5037 10.714 7.34215C10.8756 7.18061 10.9563 6.98043 10.9563 6.74162C10.9563 6.50282 10.8756 6.30264 10.714 6.1411C10.5525 5.97956 10.3523 5.89878 10.1135 5.89878C9.87468 5.89878 9.6745 5.97956 9.51296 6.1411C9.35141 6.30264 9.27064 6.50282 9.27064 6.74162C9.27064 6.98043 9.35141 7.18061 9.51296 7.34215C9.6745 7.5037 9.87468 7.58447 10.1135 7.58447ZM10.1135 18.5414C8.94755 18.5414 7.85186 18.3202 6.8264 17.8777C5.80094 17.4352 4.90893 16.8347 4.15037 16.0761C3.39181 15.3175 2.79129 14.4255 2.3488 13.4001C1.9063 12.3746 1.68506 11.2789 1.68506 10.113C1.68506 8.94706 1.9063 7.85137 2.3488 6.82591C2.79129 5.80045 3.39181 4.90844 4.15037 4.14988C4.90893 3.39133 5.80094 2.7908 6.8264 2.34831C7.85186 1.90582 8.94755 1.68457 10.1135 1.68457C11.2794 1.68457 12.3751 1.90582 13.4006 2.34831C14.426 2.7908 15.318 3.39133 16.0766 4.14988C16.8352 4.90844 17.4357 5.80045 17.8782 6.82591C18.3207 7.85137 18.5419 8.94706 18.5419 10.113C18.5419 11.2789 18.3207 12.3746 17.8782 13.4001C17.4357 14.4255 16.8352 15.3175 16.0766 16.0761C15.318 16.8347 14.426 17.4352 13.4006 17.8777C12.3751 18.3202 11.2794 18.5414 10.1135 18.5414ZM10.1135 16.8557C11.9958 16.8557 13.5902 16.2025 14.8966 14.8961C16.203 13.5897 16.8562 11.9953 16.8562 10.113C16.8562 8.23065 16.203 6.63627 14.8966 5.32986C13.5902 4.02346 11.9958 3.37026 10.1135 3.37026C8.23113 3.37026 6.63676 4.02346 5.33035 5.32986C4.02395 6.63627 3.37074 8.23065 3.37074 10.113C3.37074 11.9953 4.02395 13.5897 5.33035 14.8961C6.63676 16.2025 8.23113 16.8557 10.1135 16.8557Z" fill="white"/>
</g>
</svg>
