<svg width="64" height="65" viewBox="0 0 64 65" fill="none" xmlns="http://www.w3.org/2000/svg">
<path d="M31.625 16.75C32.719 16.75 33.7682 16.3088 34.5418 15.5235C35.3154 14.7382 35.75 13.6731 35.75 12.5625V4.1875C35.75 3.07691 35.3154 2.0118 34.5418 1.22649C33.7682 0.441182 32.719 0 31.625 0C30.531 0 29.4818 0.441182 28.7082 1.22649C27.9346 2.0118 27.5 3.07691 27.5 4.1875V12.5625C27.5 13.6731 27.9346 14.7382 28.7082 15.5235C29.4818 16.3088 30.531 16.75 31.625 16.75ZM21.3675 15.6612L15.5375 9.77083C14.75 8.98149 13.6879 8.53888 12.5812 8.53888C11.4746 8.53888 10.4125 8.98149 9.625 9.77083C9.23939 10.1574 8.93372 10.6184 8.72594 11.1265C8.51815 11.6347 8.41244 12.1798 8.415 12.73C8.42904 13.8293 8.86283 14.8802 9.625 15.6612L15.5375 21.5796C16.3103 22.3651 17.3589 22.8069 18.4525 22.8079C19.2678 22.8072 20.0646 22.5612 20.7423 22.101C21.42 21.6408 21.9482 20.9871 22.2601 20.2224C22.572 19.4577 22.6537 18.6163 22.4948 17.8045C22.3359 16.9927 21.9437 16.2469 21.3675 15.6612ZM0 32.1042C0 33.2148 0.434597 34.2799 1.20818 35.0652C1.98177 35.8505 3.03098 36.2917 4.125 36.2917H12.375C13.469 36.2917 14.5182 35.8505 15.2918 35.0652C16.0654 34.2799 16.5 33.2148 16.5 32.1042C16.5 30.9936 16.0654 29.9285 15.2918 29.1432C14.5182 28.3578 13.469 27.9167 12.375 27.9167H4.125C3.03098 27.9167 1.98177 28.3578 1.20818 29.1432C0.434597 29.9285 0 30.9936 0 32.1042ZM17.875 41.9308C17.3066 41.9274 16.7437 42.0448 16.2227 42.2756C15.7017 42.5064 15.2341 42.8454 14.85 43.2708L8.9925 49.0775C8.22668 49.8662 7.79737 50.9292 7.79737 52.0367C7.79737 53.1441 8.22668 54.2071 8.9925 54.9958C9.77063 55.7817 10.8236 56.2229 11.9213 56.2229C13.0189 56.2229 14.0719 55.7817 14.85 54.9958L20.625 49.0775C21.1924 48.5021 21.5822 47.7714 21.7468 46.9746C21.9115 46.1778 21.8437 45.3496 21.5519 44.5913C21.2602 43.833 20.757 43.1775 20.1039 42.705C19.4509 42.2325 18.6763 41.9635 17.875 41.9308ZM27.5 60.0208C27.5 61.1314 27.9346 62.1965 28.7082 62.9818C29.4818 63.7671 30.531 64.2083 31.625 64.2083C32.719 64.2083 33.7682 63.7671 34.5418 62.9818C35.3154 62.1965 35.75 61.1314 35.75 60.0208V51.6458C35.75 50.5352 35.3154 49.4701 34.5418 48.6848C33.7682 47.8995 32.719 47.4583 31.625 47.4583C30.531 47.4583 29.4818 47.8995 28.7082 48.6848C27.9346 49.4701 27.5 50.5352 27.5 51.6458V60.0208ZM42.7625 43.2708C41.99 44.056 41.5561 45.1203 41.5561 46.23C41.5561 47.3397 41.99 48.404 42.7625 49.1892L48.5925 55.1075C49.3687 55.8879 50.415 56.3288 51.5075 56.3358C52.6083 56.3302 53.6637 55.8896 54.45 55.1075C55.2137 54.3184 55.6388 53.2546 55.6325 52.1483C55.6387 51.5935 55.5348 51.043 55.3269 50.5298C55.119 50.0166 54.8115 49.5511 54.4225 49.1612L48.5925 43.2708C47.8191 42.4866 46.7706 42.0462 45.6775 42.0462C44.5844 42.0462 43.5359 42.4866 42.7625 43.2708ZM63.25 32.1042C63.25 30.9936 62.8154 29.9285 62.0418 29.1432C61.2682 28.3578 60.219 27.9167 59.125 27.9167H50.875C49.781 27.9167 48.7318 28.3578 47.9582 29.1432C47.1846 29.9285 46.75 30.9936 46.75 32.1042C46.75 33.2148 47.1846 34.2799 47.9582 35.0652C48.7318 35.8505 49.781 36.2917 50.875 36.2917H59.125C60.219 36.2917 61.2682 35.8505 62.0418 35.0652C62.8154 34.2799 63.25 33.2148 63.25 32.1042ZM50.875 8.12375C49.8401 8.17306 48.86 8.61081 48.125 9.35208L42.24 15.3542C41.4675 16.1393 41.0336 17.2036 41.0336 18.3133C41.0336 19.423 41.4675 20.4873 42.24 21.2725C43.0181 22.0584 44.0711 22.4996 45.1687 22.4996C46.2664 22.4996 47.3194 22.0584 48.0975 21.2725L53.9275 15.3542C54.5433 14.7657 54.966 13.9994 55.1385 13.159C55.311 12.3185 55.2248 11.4445 54.8917 10.6555C54.5585 9.86639 53.9945 9.20031 53.2761 8.74747C52.5576 8.29462 51.7194 8.07688 50.875 8.12375Z" fill="white"/>
</svg>
