<svg width="36" height="30" viewBox="0 0 36 30" fill="none" xmlns="http://www.w3.org/2000/svg">
<mask id="mask0_1778_120" style="mask-type:alpha" maskUnits="userSpaceOnUse" x="0" y="0" width="30" height="30">
<rect width="30" height="30" fill="#D9D9D9"/>
</mask>
<g mask="url(#mask0_1778_120)">
<path d="M1.25 22.5L1.875 20H8.75L8.125 22.5H1.25ZM3.75 17.5L4.375 15H12.5L11.875 17.5H3.75ZM23.2188 25L23.8438 20L24.75 12.5L25.0625 10.0312L23.2188 25ZM7.5 27.5C6.8125 27.5 6.22396 27.2552 5.73438 26.7656C5.24479 26.276 5 25.6875 5 25H23.2188L25.0625 10.0312H21.625L21.2812 12.6875C21.2396 13.0417 21.0833 13.3177 20.8125 13.5156C20.5417 13.7135 20.2292 13.7917 19.875 13.75C19.5208 13.7083 19.2448 13.5573 19.0469 13.2969C18.849 13.0365 18.7708 12.7292 18.8125 12.375L19.0938 10.0312H14.125L13.7813 12.6562C13.7396 13.0104 13.5833 13.2917 13.3125 13.5C13.0417 13.7083 12.7292 13.7917 12.375 13.75C12.0208 13.7083 11.7396 13.5521 11.5312 13.2812C11.3229 13.0104 11.2396 12.6979 11.2813 12.3438L11.5625 10.0312H6.875C6.95833 9.32292 7.22917 8.72396 7.6875 8.23438C8.14583 7.74479 8.70833 7.5 9.375 7.5H11.875C12.0417 5.9375 12.5781 4.71354 13.4844 3.82812C14.3906 2.94271 15.625 2.5 17.1875 2.5C18.5208 2.5 19.6302 2.99479 20.5156 3.98438C21.401 4.97396 21.8333 6.14583 21.8125 7.5H25C25.75 7.52083 26.375 7.8125 26.875 8.375C27.375 8.9375 27.5729 9.59375 27.4688 10.3438L25.5938 25.3438C25.5104 25.9688 25.2344 26.4844 24.7656 26.8906C24.2969 27.2969 23.75 27.5 23.125 27.5H7.5ZM14.375 7.5H19.3438C19.3646 6.8125 19.1302 6.22396 18.6406 5.73438C18.151 5.24479 17.5625 5 16.875 5C16.1458 5 15.5677 5.22396 15.1406 5.67188C14.7135 6.11979 14.4583 6.72917 14.375 7.5Z" fill="#8A1717"/>
</g>
<path d="M30.5 2C31.9587 2 33.3576 2.63214 34.3891 3.75736C35.4205 4.88258 36 6.4087 36 8C36 9.5913 35.4205 11.1174 34.3891 12.2426C33.3576 13.3679 31.9587 14 30.5 14C29.0413 14 27.6424 13.3679 26.6109 12.2426C25.5795 11.1174 25 9.5913 25 8C25 6.4087 25.5795 4.88258 26.6109 3.75736C27.6424 2.63214 29.0413 2 30.5 2ZM31.2301 5.234C31.2301 5.03509 31.1577 4.84432 31.0288 4.70367C30.8998 4.56302 30.725 4.484 30.5426 4.484C30.3603 4.484 30.1854 4.56302 30.0565 4.70367C29.9276 4.84432 29.8551 5.03509 29.8551 5.234V7.2965H27.9645C27.7822 7.2965 27.6073 7.37552 27.4784 7.51617C27.3494 7.65682 27.277 7.84759 27.277 8.0465C27.277 8.24541 27.3494 8.43618 27.4784 8.57683C27.6073 8.71748 27.7822 8.7965 27.9645 8.7965H29.8551V10.859C29.8551 11.0579 29.9276 11.2487 30.0565 11.3893C30.1854 11.53 30.3603 11.609 30.5426 11.609C30.725 11.609 30.8998 11.53 31.0288 11.3893C31.1577 11.2487 31.2301 11.0579 31.2301 10.859V8.7965H33.1208C33.3031 8.7965 33.478 8.71748 33.6069 8.57683C33.7358 8.43618 33.8083 8.24541 33.8083 8.0465C33.8083 7.84759 33.7358 7.65682 33.6069 7.51617C33.478 7.37552 33.3031 7.2965 33.1208 7.2965H31.2301V5.234Z" fill="#8A1717"/>
</svg>
