<svg width="126" height="126" viewBox="0 0 126 126" fill="none" xmlns="http://www.w3.org/2000/svg">
<rect y="62.5648" width="88.7657" height="89.0157" rx="20" transform="rotate(-44.8159 0 62.5648)" fill="#8A1717"/>
<path d="M48 86C46.625 86 45.4483 85.5108 44.47 84.5325C43.4917 83.5542 43.0017 82.3767 43 81V56C43 54.625 43.49 53.4483 44.47 52.47C45.45 51.4917 46.6267 51.0017 48 51H50.5V46C50.5 42.5417 51.7192 39.5942 54.1575 37.1575C56.5958 34.7208 59.5433 33.5017 63 33.5C66.4567 33.4983 69.405 34.7175 71.845 37.1575C74.285 39.5975 75.5033 42.545 75.5 46V51H78C79.375 51 80.5525 51.49 81.5325 52.47C82.5125 53.45 83.0017 54.6267 83 56V81C83 82.375 82.5108 83.5525 81.5325 84.5325C80.5542 85.5125 79.3767 86.0017 78 86H48ZM48 81H78V56H48V81ZM63 73.5C64.375 73.5 65.5525 73.0108 66.5325 72.0325C67.5125 71.0542 68.0017 69.8767 68 68.5C67.9983 67.1233 67.5092 65.9467 66.5325 64.97C65.5558 63.9933 64.3783 63.5033 63 63.5C61.6217 63.4967 60.445 63.9867 59.47 64.97C58.495 65.9533 58.005 67.13 58 68.5C57.995 69.87 58.485 71.0475 59.47 72.0325C60.455 73.0175 61.6317 73.5067 63 73.5ZM55.5 51H70.5V46C70.5 43.9167 69.7708 42.1458 68.3125 40.6875C66.8542 39.2292 65.0833 38.5 63 38.5C60.9167 38.5 59.1458 39.2292 57.6875 40.6875C56.2292 42.1458 55.5 43.9167 55.5 46V51Z" fill="white"/>
</svg>
