<svg width="16" height="16" viewBox="0 0 16 16" fill="none" xmlns="http://www.w3.org/2000/svg">
<mask id="mask0_686_281" style="mask-type:alpha" maskUnits="userSpaceOnUse" x="0" y="0" width="16" height="16">
<rect width="15.6065" height="15.6065" fill="#D9D9D9"/>
</mask>
<g mask="url(#mask0_686_281)">
<path d="M7.80325 14.3057C6.65444 14.3057 5.71696 14.1242 4.99082 13.7611C4.26468 13.3981 3.90162 12.9293 3.90162 12.3549C3.90162 12.0948 3.98019 11.8537 4.13734 11.6315C4.29449 11.4093 4.51396 11.217 4.79574 11.0544L5.81992 12.0135C5.72238 12.0569 5.61671 12.1057 5.50291 12.1599C5.38911 12.214 5.2997 12.2791 5.23467 12.3549C5.37557 12.5283 5.7007 12.6801 6.21008 12.8101C6.71946 12.9402 7.25052 13.0052 7.80325 13.0052C8.35598 13.0052 8.88975 12.9402 9.40455 12.8101C9.91935 12.6801 10.2472 12.5283 10.3881 12.3549C10.3122 12.2682 10.2147 12.1978 10.0955 12.1436C9.97625 12.0894 9.86245 12.0406 9.75407 11.9973L10.762 11.0219C11.0655 11.1953 11.2985 11.3931 11.461 11.6152C11.6236 11.8374 11.7049 12.084 11.7049 12.3549C11.7049 12.9293 11.3418 13.3981 10.6157 13.7611C9.88954 14.1242 8.95207 14.3057 7.80325 14.3057ZM7.81951 10.7292C8.89246 9.93808 9.69988 9.14421 10.2418 8.34763C10.7837 7.55104 11.0546 6.75175 11.0546 5.94974C11.0546 4.84428 10.7024 4.00976 9.99792 3.44619C9.29346 2.88262 8.5619 2.60084 7.80325 2.60084C7.0446 2.60084 6.31304 2.88262 5.60858 3.44619C4.90412 4.00976 4.55189 4.84428 4.55189 5.94974C4.55189 6.67588 4.81742 7.43182 5.34847 8.21757C5.87953 9.00332 6.70321 9.84054 7.81951 10.7292ZM7.80325 12.3549C6.27511 11.2278 5.13442 10.1332 4.38119 9.07105C3.62796 8.00894 3.25134 6.9685 3.25134 5.94974C3.25134 5.18025 3.38953 4.5056 3.66589 3.92577C3.94226 3.34594 4.2972 2.86095 4.73071 2.47078C5.16423 2.08062 5.65193 1.788 6.19383 1.59292C6.73572 1.39783 7.2722 1.30029 7.80325 1.30029C8.33431 1.30029 8.87078 1.39783 9.41268 1.59292C9.95457 1.788 10.4423 2.08062 10.8758 2.47078C11.3093 2.86095 11.6642 3.34594 11.9406 3.92577C12.217 4.5056 12.3552 5.18025 12.3552 5.94974C12.3552 6.9685 11.9785 8.00894 11.2253 9.07105C10.4721 10.1332 9.33139 11.2278 7.80325 12.3549ZM7.80325 7.15275C8.1609 7.15275 8.46707 7.0254 8.72176 6.77071C8.97645 6.51602 9.1038 6.20985 9.1038 5.8522C9.1038 5.49455 8.97645 5.18838 8.72176 4.93369C8.46707 4.679 8.1609 4.55166 7.80325 4.55166C7.4456 4.55166 7.13943 4.679 6.88474 4.93369C6.63005 5.18838 6.50271 5.49455 6.50271 5.8522C6.50271 6.20985 6.63005 6.51602 6.88474 6.77071C7.13943 7.0254 7.4456 7.15275 7.80325 7.15275Z" fill="white"/>
</g>
</svg>
