<svg width="60" height="60" viewBox="0 0 60 60" fill="none" xmlns="http://www.w3.org/2000/svg">
<path d="M12.5 52.5C11.125 52.5 9.94833 52.0108 8.97 51.0325C7.99167 50.0542 7.50167 48.8767 7.5 47.5V12.5C7.5 11.125 7.99 9.94833 8.97 8.97C9.95 7.99167 11.1267 7.50167 12.5 7.5H27.5C28.2083 7.5 28.8025 7.74 29.2825 8.22C29.7625 8.7 30.0017 9.29333 30 10C29.9983 10.7067 29.7583 11.3008 29.28 11.7825C28.8017 12.2642 28.2083 12.5033 27.5 12.5H12.5V47.5H27.5C28.2083 47.5 28.8025 47.74 29.2825 48.22C29.7625 48.7 30.0017 49.2933 30 50C29.9983 50.7067 29.7583 51.3008 29.28 51.7825C28.8017 52.2642 28.2083 52.5033 27.5 52.5H12.5ZM42.9375 32.5H25C24.2917 32.5 23.6983 32.26 23.22 31.78C22.7417 31.3 22.5017 30.7067 22.5 30C22.4983 29.2933 22.7383 28.7 23.22 28.22C23.7017 27.74 24.295 27.5 25 27.5H42.9375L38.25 22.8125C37.7917 22.3542 37.5625 21.7917 37.5625 21.125C37.5625 20.4583 37.7917 19.875 38.25 19.375C38.7083 18.875 39.2917 18.6142 40 18.5925C40.7083 18.5708 41.3125 18.8108 41.8125 19.3125L50.75 28.25C51.25 28.75 51.5 29.3333 51.5 30C51.5 30.6667 51.25 31.25 50.75 31.75L41.8125 40.6875C41.3125 41.1875 40.7192 41.4275 40.0325 41.4075C39.3458 41.3875 38.7517 41.1267 38.25 40.625C37.7917 40.125 37.5733 39.5317 37.595 38.845C37.6167 38.1583 37.8558 37.585 38.3125 37.125L42.9375 32.5Z" fill="#8A1717"/>
</svg>
