<svg width="30" height="30" viewBox="0 0 30 30" fill="none" xmlns="http://www.w3.org/2000/svg">
<path d="M6.25 26.25C5.5625 26.25 4.97417 26.0054 4.485 25.5163C3.99583 25.0271 3.75083 24.4383 3.75 23.75V6.25C3.75 5.5625 3.995 4.97417 4.485 4.485C4.975 3.99583 5.56333 3.75083 6.25 3.75H13.75C14.1042 3.75 14.4013 3.87 14.6413 4.11C14.8813 4.35 15.0008 4.64667 15 5C14.9992 5.35333 14.8792 5.65042 14.64 5.89125C14.4008 6.13208 14.1042 6.25167 13.75 6.25H6.25V23.75H13.75C14.1042 23.75 14.4013 23.87 14.6413 24.11C14.8813 24.35 15.0008 24.6467 15 25C14.9992 25.3533 14.8792 25.6504 14.64 25.8912C14.4008 26.1321 14.1042 26.2517 13.75 26.25H6.25ZM21.4687 16.25H12.5C12.1458 16.25 11.8492 16.13 11.61 15.89C11.3708 15.65 11.2508 15.3533 11.25 15C11.2492 14.6467 11.3692 14.35 11.61 14.11C11.8508 13.87 12.1475 13.75 12.5 13.75H21.4687L19.125 11.4062C18.8958 11.1771 18.7812 10.8958 18.7812 10.5625C18.7812 10.2292 18.8958 9.9375 19.125 9.6875C19.3542 9.4375 19.6458 9.30708 20 9.29625C20.3542 9.28542 20.6563 9.40542 20.9063 9.65625L25.375 14.125C25.625 14.375 25.75 14.6667 25.75 15C25.75 15.3333 25.625 15.625 25.375 15.875L20.9063 20.3437C20.6563 20.5937 20.3596 20.7137 20.0163 20.7037C19.6729 20.6937 19.3758 20.5633 19.125 20.3125C18.8958 20.0625 18.7867 19.7658 18.7975 19.4225C18.8083 19.0792 18.9279 18.7925 19.1562 18.5625L21.4687 16.25Z" fill="white"/>
</svg>
