<svg width="60" height="60" viewBox="0 0 60 60" fill="none" xmlns="http://www.w3.org/2000/svg">
<path d="M47.5 17.5H40V15C40 12.3478 38.9464 9.8043 37.0711 7.92893C35.1957 6.05357 32.6522 5 30 5C27.3478 5 24.8043 6.05357 22.9289 7.92893C21.0536 9.8043 20 12.3478 20 15V17.5H12.5C11.837 17.5 11.2011 17.7634 10.7322 18.2322C10.2634 18.7011 10 19.337 10 20V47.5C10 49.4891 10.7902 51.3968 12.1967 52.8033C13.6032 54.2098 15.5109 55 17.5 55H42.5C44.4891 55 46.3968 54.2098 47.8033 52.8033C49.2098 51.3968 50 49.4891 50 47.5V20C50 19.337 49.7366 18.7011 49.2678 18.2322C48.7989 17.7634 48.163 17.5 47.5 17.5ZM25 15C25 13.6739 25.5268 12.4021 26.4645 11.4645C27.4021 10.5268 28.6739 10 30 10C31.3261 10 32.5979 10.5268 33.5355 11.4645C34.4732 12.4021 35 13.6739 35 15V17.5H25V15ZM45 47.5C45 48.163 44.7366 48.7989 44.2678 49.2678C43.7989 49.7366 43.163 50 42.5 50H17.5C16.837 50 16.2011 49.7366 15.7322 49.2678C15.2634 48.7989 15 48.163 15 47.5V22.5H20V25C20 25.663 20.2634 26.2989 20.7322 26.7678C21.2011 27.2366 21.837 27.5 22.5 27.5C23.163 27.5 23.7989 27.2366 24.2678 26.7678C24.7366 26.2989 25 25.663 25 25V22.5H35V25C35 25.663 35.2634 26.2989 35.7322 26.7678C36.2011 27.2366 36.837 27.5 37.5 27.5C38.163 27.5 38.7989 27.2366 39.2678 26.7678C39.7366 26.2989 40 25.663 40 25V22.5H45V47.5Z" fill="#8A1717"/>
</svg>
