<svg width="60" height="60" viewBox="0 0 60 60" fill="none" xmlns="http://www.w3.org/2000/svg">
<path d="M18.75 39.375V5.625L22.5 7.5L26.25 5.625L29.993 7.5L33.7863 5.625L37.5 7.5L41.2254 5.625L44.9672 7.5L48.75 5.625L52.5012 7.5L56.25 5.625V31.875" stroke="#8A1717" stroke-width="3" stroke-linejoin="round"/>
<path d="M56.2501 31.875V45C56.2501 47.4864 55.2624 49.871 53.5042 51.6291C51.746 53.3873 49.3615 54.375 46.8751 54.375M46.8751 54.375C44.3887 54.375 42.0041 53.3873 40.2459 51.6291C38.4878 49.871 37.5001 47.4864 37.5001 45V39.375H5.62507C5.37824 39.3728 5.13343 39.4198 4.90496 39.5133C4.67649 39.6067 4.46892 39.7447 4.29437 39.9193C4.11982 40.0938 3.98179 40.3014 3.88834 40.5299C3.79489 40.7584 3.74788 41.0032 3.75007 41.25C3.75007 48.75 4.53992 54.375 13.1251 54.375H46.8751Z" stroke="#8A1717" stroke-width="3" stroke-linejoin="round"/>
<path d="M26.25 16.875H48.75M33.75 26.25H48.75" stroke="#8A1717" stroke-width="3" stroke-linecap="round" stroke-linejoin="round"/>
</svg>
