<svg width="100" height="100" viewBox="0 0 100 100" fill="none" xmlns="http://www.w3.org/2000/svg">
<path d="M50.0002 70.8333C51.1807 70.8333 52.171 70.4333 52.971 69.6333C53.771 68.8333 54.1696 67.8444 54.1668 66.6666C54.1641 65.4889 53.7641 64.5 52.9668 63.7C52.1696 62.9 51.1807 62.5 50.0002 62.5C48.8196 62.5 47.8307 62.9 47.0335 63.7C46.2363 64.5 45.8363 65.4889 45.8335 66.6666C45.8307 67.8444 46.2307 68.8347 47.0335 69.6375C47.8363 70.4403 48.8252 70.8389 50.0002 70.8333ZM50.0002 54.1666C51.1807 54.1666 52.171 53.7667 52.971 52.9666C53.771 52.1666 54.1696 51.1778 54.1668 50V33.3333C54.1668 32.1528 53.7668 31.1639 52.9668 30.3666C52.1668 29.5694 51.1779 29.1694 50.0002 29.1666C48.8224 29.1639 47.8335 29.5639 47.0335 30.3666C46.2335 31.1694 45.8335 32.1583 45.8335 33.3333V50C45.8335 51.1805 46.2335 52.1708 47.0335 52.9708C47.8335 53.7708 48.8224 54.1694 50.0002 54.1666ZM50.0002 91.6667C44.2363 91.6667 38.8196 90.5722 33.7502 88.3833C28.6807 86.1944 24.271 83.2264 20.521 79.4792C16.771 75.7319 13.8029 71.3222 11.6168 66.25C9.43072 61.1778 8.33628 55.7611 8.3335 50C8.33072 44.2389 9.42517 38.8222 11.6168 33.75C13.8085 28.6778 16.7766 24.268 20.521 20.5208C24.2654 16.7736 28.6752 13.8055 33.7502 11.6166C38.8252 9.42776 44.2418 8.33331 50.0002 8.33331C55.7585 8.33331 61.1752 9.42776 66.2502 11.6166C71.3252 13.8055 75.7349 16.7736 79.4793 20.5208C83.2238 24.268 86.1932 28.6778 88.3877 33.75C90.5821 38.8222 91.6752 44.2389 91.6668 50C91.6585 55.7611 90.5641 61.1778 88.3835 66.25C86.2029 71.3222 83.2349 75.7319 79.4793 79.4792C75.7238 83.2264 71.3141 86.1958 66.2502 88.3875C61.1863 90.5791 55.7696 91.6722 50.0002 91.6667Z" fill="white"/>
</svg>
