<svg width="60" height="60" viewBox="0 0 60 60" fill="none" xmlns="http://www.w3.org/2000/svg">
<path d="M17.5 44.995C12.0625 44.965 9.1175 44.725 7.1975 42.8025C5 40.6075 5 37.07 5 30V20C5 12.93 5 9.3925 7.1975 7.1975C9.3925 5 12.93 5 20 5H40C47.07 5 50.6075 5 52.8025 7.1975C55 9.3925 55 12.93 55 20V30C55 37.07 55 40.6075 52.8025 42.8025C50.9775 44.6275 48.23 44.9375 43.3 44.99L41.25 44.995" stroke="#8A1717" stroke-width="3"/>
<path d="M22.5 15H37.5M17.5 23.75H42.5" stroke="#8A1717" stroke-width="3" stroke-linecap="round"/>
<path d="M27.225 34.8625C27.9988 34.2022 28.9827 33.8394 30 33.8394C31.0173 33.8394 32.0012 34.2022 32.775 34.8625C33.4575 35.4475 34.31 35.8 35.205 35.8725C36.2185 35.9525 37.1703 36.391 37.8896 37.1094C38.609 37.8279 39.0487 38.7791 39.13 39.7925C39.2 40.6925 39.5525 41.5425 40.135 42.2275C40.794 43.001 41.1559 43.9839 41.1559 45C41.1559 46.0161 40.794 46.999 40.135 47.7725C39.5497 48.4569 39.1969 49.3096 39.1275 50.2075C39.0469 51.2209 38.6077 52.1725 37.8888 52.8913C37.17 53.6102 36.2184 54.0494 35.205 54.13C34.308 54.1999 33.4562 54.5526 32.7725 55.1375C31.9989 55.7972 31.0154 56.1595 29.9987 56.1595C28.9821 56.1595 27.9986 55.7972 27.225 55.1375C26.5416 54.5517 25.6898 54.1981 24.7925 54.1275C23.7795 54.0469 22.8282 53.6082 22.1094 52.8898C21.3906 52.1714 20.9512 51.2205 20.87 50.2075C20.8006 49.3096 20.4478 48.4569 19.8625 47.7725C19.2035 46.999 18.8416 46.0161 18.8416 45C18.8416 43.9839 19.2035 43.001 19.8625 42.2275C20.4478 41.5431 20.8006 40.6904 20.87 39.7925C20.9513 38.7791 21.391 37.8279 22.1104 37.1094C22.8297 36.391 23.7815 35.9525 24.795 35.8725C25.69 35.8 26.54 35.4475 27.225 34.8625Z" stroke="#8A1717" stroke-width="3"/>
<path d="M26.25 45.5L28.3925 47.5L33.75 42.5" stroke="#8A1717" stroke-width="3" stroke-linecap="round" stroke-linejoin="round"/>
</svg>
