<svg width="100" height="100" viewBox="0 0 100 100" fill="none" xmlns="http://www.w3.org/2000/svg">
<mask id="mask0_1972_212" style="mask-type:alpha" maskUnits="userSpaceOnUse" x="0" y="0" width="100" height="100">
<rect width="100" height="100" fill="#D9D9D9"/>
</mask>
<g mask="url(#mask0_1972_212)">
<path d="M79.3666 79.6555L70.5124 88.4462L66.1218 84.0545L74.9124 75.2003L66.1218 66.3462L70.5124 61.9555L79.3666 70.7462L88.2208 61.9555L92.6124 66.3462L83.8218 75.2003L92.6124 84.0545L88.2208 88.4462L79.3666 79.6555ZM24.9999 89.5837C22.0888 89.5837 19.6249 88.5753 17.6083 86.5587C15.5916 84.542 14.5833 82.0781 14.5833 79.167V67.1482H27.0833V10.417H85.4166V51.4024C84.4173 51.0767 83.3968 50.8392 82.3551 50.6899C81.3135 50.5399 80.2506 50.4649 79.1666 50.4649V16.667H33.3333V67.1482H55.9853C55.6333 68.1469 55.3555 69.1604 55.152 70.1889C54.9492 71.2166 54.8211 72.2861 54.7676 73.3972H20.8333V79.167C20.8333 80.3475 21.2326 81.3371 22.0312 82.1357C22.8298 82.9343 23.8194 83.3337 24.9999 83.3337H55.9853C56.3805 84.5302 56.8812 85.6427 57.4874 86.6712C58.0937 87.6989 58.7787 88.6698 59.5426 89.5837H24.9999ZM38.301 36.218V29.968H74.1989V36.218H38.301ZM38.301 48.2378V41.9878H74.1989V48.2378H38.301ZM55.9853 83.3337H20.8333H54.7676H54.6791H55.9853Z" fill="white"/>
</g>
</svg>
