<svg width="16" height="16" viewBox="0 0 16 16" fill="none" xmlns="http://www.w3.org/2000/svg">
<mask id="mask0_686_284" style="mask-type:alpha" maskUnits="userSpaceOnUse" x="0" y="0" width="16" height="16">
<rect width="15.6065" height="15.6065" fill="#D9D9D9"/>
</mask>
<g mask="url(#mask0_686_284)">
<path d="M9.94917 10.8593L10.8595 9.94892L8.45354 7.54291V4.55166H7.15299V8.06313L9.94917 10.8593ZM7.80327 14.3057C6.90372 14.3057 6.05837 14.1351 5.2672 13.7937C4.47604 13.4523 3.78783 12.9889 3.20259 12.4037C2.61734 11.8185 2.15402 11.1303 1.81263 10.3391C1.47123 9.54792 1.30054 8.70257 1.30054 7.80302C1.30054 6.90348 1.47123 6.05812 1.81263 5.26696C2.15402 4.47579 2.61734 3.78759 3.20259 3.20234C3.78783 2.6171 4.47604 2.15378 5.2672 1.81238C6.05837 1.47099 6.90372 1.30029 7.80327 1.30029C8.70281 1.30029 9.54816 1.47099 10.3393 1.81238C11.1305 2.15378 11.8187 2.6171 12.4039 3.20234C12.9892 3.78759 13.4525 4.47579 13.7939 5.26696C14.1353 6.05812 14.306 6.90348 14.306 7.80302C14.306 8.70257 14.1353 9.54792 13.7939 10.3391C13.4525 11.1303 12.9892 11.8185 12.4039 12.4037C11.8187 12.9889 11.1305 13.4523 10.3393 13.7937C9.54816 14.1351 8.70281 14.3057 7.80327 14.3057ZM7.80327 13.0052C9.2447 13.0052 10.4721 12.4985 11.4854 11.4852C12.4988 10.4718 13.0054 9.24446 13.0054 7.80302C13.0054 6.36158 12.4988 5.13419 11.4854 4.12085C10.4721 3.10751 9.2447 2.60084 7.80327 2.60084C6.36183 2.60084 5.13444 3.10751 4.1211 4.12085C3.10775 5.13419 2.60108 6.36158 2.60108 7.80302C2.60108 9.24446 3.10775 10.4718 4.1211 11.4852C5.13444 12.4985 6.36183 13.0052 7.80327 13.0052Z" fill="white"/>
</g>
</svg>
